<svg width="50" height="50" viewBox="0 0 50 50" fill="none" xmlns="http://www.w3.org/2000/svg">
<mask id="path-1-inside-1_13_2" fill="white">
<path fill-rule="evenodd" clip-rule="evenodd" d="M4 0C1.79086 0 0 1.79086 0 4V46C0 48.2091 1.79086 50 4 50H46C48.2091 50 50 48.2091 50 46V4C50 1.79086 48.2091 0 46 0H4ZM19.9709 31.2626C19.9709 31.2626 36.579 14.3469 38.4751 12.6629C40.3711 10.9789 46.3763 12.5727 44.1984 17.967L22.0776 40.2089C20.7462 40.9937 19.7947 40.9814 17.7588 40.2089C17.7588 40.2089 7.96243 30.7182 5.96104 28.3277C3.95965 25.9372 7.03053 20.448 11.5088 22.9175L19.9709 31.2626Z"/>
</mask>
<path fill-rule="evenodd" clip-rule="evenodd" d="M4 0C1.79086 0 0 1.79086 0 4V46C0 48.2091 1.79086 50 4 50H46C48.2091 50 50 48.2091 50 46V4C50 1.79086 48.2091 0 46 0H4ZM19.9709 31.2626C19.9709 31.2626 36.579 14.3469 38.4751 12.6629C40.3711 10.9789 46.3763 12.5727 44.1984 17.967L22.0776 40.2089C20.7462 40.9937 19.7947 40.9814 17.7588 40.2089C17.7588 40.2089 7.96243 30.7182 5.96104 28.3277C3.95965 25.9372 7.03053 20.448 11.5088 22.9175L19.9709 31.2626Z" fill="#B60083"/>
<path d="M38.4751 12.6629L-3.36086 -34.4407L-3.36091 -34.4407L38.4751 12.6629ZM19.9709 31.2626L-24.2658 76.1193C-12.3519 87.8685 3.74676 94.3956 20.479 94.2606C37.2113 94.1256 53.2025 87.3397 64.9254 75.3998L19.9709 31.2626ZM44.1984 17.967L88.8675 62.393C94.795 56.4331 99.4699 49.3473 102.617 41.5529L44.1984 17.967ZM22.0776 40.2089L54.0698 94.4813C58.698 91.7531 62.9582 88.4441 66.7468 84.6349L22.0776 40.2089ZM17.7588 40.2089L-26.0775 85.4569C-19.9192 91.423 -12.6079 96.0692 -4.59136 99.1111L17.7588 40.2089ZM5.96104 28.3277L54.2661 -12.1151L54.2661 -12.1151L5.96104 28.3277ZM11.5088 22.9175L55.7455 -21.9391C51.6348 -25.9929 46.9865 -29.4625 41.931 -32.2503L11.5088 22.9175ZM63 4C63 36.5848 36.5848 63 4 63V-63C-33.0031 -63 -63 -33.0031 -63 4H63ZM63 46V4H-63V46H63ZM4 -13C36.5848 -13 63 13.4152 63 46H-63C-63 83.0031 -33.0031 113 4 113V-13ZM46 -13H4V113H46V-13ZM-13 46C-13 13.4152 13.4152 -13 46 -13V113C83.0031 113 113 83.0031 113 46H-13ZM-13 4V46H113V4H-13ZM46 63C13.4152 63 -13 36.5848 -13 4H113C113 -33.0031 83.0031 -63 46 -63V63ZM4 63H46V-63H4V63ZM-3.36091 -34.4407C-6.31196 -31.8197 -13.1428 -24.8811 -16.2893 -21.6985C-18.5285 -19.4336 -20.6995 -17.2302 -22.3062 -15.5977C-23.1109 -14.78 -23.7771 -14.1024 -24.2435 -13.628C-24.4767 -13.3907 -24.6601 -13.204 -24.786 -13.0758C-24.8489 -13.0118 -24.8975 -12.9623 -24.9308 -12.9284C-24.9474 -12.9115 -24.9602 -12.8984 -24.9691 -12.8894C-24.9735 -12.8849 -24.9769 -12.8814 -24.9794 -12.8789C-24.9806 -12.8777 -24.9815 -12.8767 -24.9823 -12.876C-24.9826 -12.8756 -24.983 -12.8752 -24.9831 -12.8751C-24.9834 -12.8748 -24.9837 -12.8746 19.9709 31.2626C64.9254 75.3998 64.9253 75.3999 64.9253 75.3999C64.9253 75.3999 64.9254 75.3998 64.9255 75.3997C64.9258 75.3994 64.9264 75.3988 64.9272 75.398C64.9287 75.3964 64.9313 75.3938 64.9349 75.3901C64.942 75.3829 64.9531 75.3716 64.9679 75.3565C64.9976 75.3263 65.0425 75.2806 65.1017 75.2203C65.22 75.0999 65.3953 74.9215 65.6199 74.6929C66.0692 74.2358 66.7153 73.5787 67.4972 72.7842C69.0638 71.1924 71.1634 69.0616 73.3132 66.8871C75.478 64.6974 77.6287 62.5293 79.3196 60.8393C81.8886 58.2717 81.5971 58.6243 80.3111 59.7665L-3.36091 -34.4407ZM102.617 41.5529C107.372 29.7759 110.258 13.1753 104.409 -4.83418C98.5867 -22.7611 86.4562 -34.7898 74.8027 -41.6436C63.6795 -48.1856 51.576 -51.0212 40.2294 -50.9769C30.038 -50.937 12.3547 -48.3988 -3.36086 -34.4407L80.311 59.7666C65.5435 72.8826 49.3219 74.9886 40.7217 75.0222C30.9662 75.0603 20.5834 72.6446 10.9263 66.9648C0.738777 60.9732 -10.1802 50.2492 -15.4296 34.0856C-20.7059 17.8395 -17.8859 3.46094 -14.2199 -5.61892L102.617 41.5529ZM66.7468 84.6349L88.8675 62.393L-0.470732 -26.459L-22.5915 -4.2171L66.7468 84.6349ZM-4.59136 99.1111C-1.92723 100.122 7.58216 103.764 20.0351 103.793C35.2346 103.828 46.8986 98.7086 54.0698 94.4813L-9.91459 -14.0636C-4.07474 -17.506 6.4478 -22.2394 20.3296 -22.207C31.465 -22.1809 39.4807 -18.9317 40.1089 -18.6933L-4.59136 99.1111ZM-42.344 68.7705C-38.9659 72.8053 -33.3505 78.315 -31.7063 79.9422C-30.2232 81.4101 -28.8276 82.7774 -27.8119 83.7689C-27.3006 84.268 -26.8776 84.6798 -26.5779 84.9711C-26.4279 85.1169 -26.3083 85.233 -26.2236 85.3152C-26.1812 85.3563 -26.1474 85.3891 -26.1229 85.4128C-26.1107 85.4247 -26.1007 85.4344 -26.0931 85.4417C-26.0893 85.4454 -26.0861 85.4485 -26.0835 85.451C-26.0822 85.4523 -26.081 85.4534 -26.08 85.4544C-26.0795 85.4549 -26.0789 85.4555 -26.0786 85.4557C-26.078 85.4563 -26.0775 85.4569 17.7588 40.2089C61.5951 -5.03911 61.5956 -5.03864 61.596 -5.0382C61.5961 -5.0381 61.5965 -5.0377 61.5967 -5.0375C61.5971 -5.03711 61.5974 -5.03685 61.5975 -5.03674C61.5977 -5.03652 61.5974 -5.03685 61.5965 -5.03774C61.5946 -5.03952 61.5905 -5.04351 61.5842 -5.04966C61.5715 -5.06195 61.55 -5.08282 61.5201 -5.11179C61.4604 -5.16974 61.3676 -5.25989 61.2458 -5.37827C61.0019 -5.61534 60.644 -5.96368 60.2055 -6.3917C59.3219 -7.25437 58.1433 -8.40916 56.9272 -9.6128C55.6825 -10.8447 54.5369 -11.9908 53.6725 -12.874C52.2147 -14.3635 52.9431 -13.6953 54.2661 -12.1151L-42.344 68.7705ZM41.931 -32.2503C28.8786 -39.448 12.0565 -43.1011 -5.70418 -38.9996C-22.6349 -35.0899 -35.1396 -25.3584 -43.1121 -15.2761C-55.0028 -0.238668 -69.4963 36.3398 -42.344 68.7705L54.2661 -12.1151C66.9672 3.05507 69.1884 20.2144 68.0767 32.0285C66.969 43.8011 62.4276 54.3963 55.7221 62.8763C48.827 71.5962 37.8047 80.2689 22.6467 83.7694C6.65877 87.4614 -8.10018 84.0483 -18.9134 78.0853L41.931 -32.2503ZM64.2075 -13.594L55.7455 -21.9391L-32.7279 67.7741L-24.2658 76.1193L64.2075 -13.594Z" fill="#B60083" mask="url(#path-1-inside-1_13_2)"/>
</svg>
