<svg width="50" height="50" viewBox="0 0 50 50" fill="none" xmlns="http://www.w3.org/2000/svg">
<mask id="path-1-inside-1_13_5" fill="white">
<path fill-rule="evenodd" clip-rule="evenodd" d="M40 6H10C7.79086 6 6 7.79086 6 10V40C6 42.2091 7.79086 44 10 44H40C42.2091 44 44 42.2091 44 40V10C44 7.79086 42.2091 6 40 6ZM10 0C4.47715 0 0 4.47715 0 10V40C0 45.5228 4.47715 50 10 50H40C45.5228 50 50 45.5228 50 40V10C50 4.47715 45.5228 0 40 0H10Z"/>
</mask>
<path fill-rule="evenodd" clip-rule="evenodd" d="M40 6H10C7.79086 6 6 7.79086 6 10V40C6 42.2091 7.79086 44 10 44H40C42.2091 44 44 42.2091 44 40V10C44 7.79086 42.2091 6 40 6ZM10 0C4.47715 0 0 4.47715 0 10V40C0 45.5228 4.47715 50 10 50H40C45.5228 50 50 45.5228 50 40V10C50 4.47715 45.5228 0 40 0H10Z" fill="#B60083"/>
<path d="M10 69H40V-57H10V69ZM69 10C69 42.5848 42.5848 69 10 69V-57C-27.0031 -57 -57 -27.0031 -57 10H69ZM69 40V10H-57V40H69ZM10 -19C42.5848 -19 69 7.41519 69 40H-57C-57 77.0031 -27.0031 107 10 107V-19ZM40 -19H10V107H40V-19ZM-19 40C-19 7.41524 7.41516 -19 40 -19V107C77.0031 107 107 77.003 107 40H-19ZM-19 10V40H107V10H-19ZM40 69C7.41522 69 -19 42.5848 -19 10H107C107 -27.0031 77.0031 -57 40 -57V69ZM63 10C63 39.2711 39.2711 63 10 63V-63C-30.3168 -63 -63 -30.3168 -63 10H63ZM63 40V10H-63V40H63ZM10 -13C39.2711 -13 63 10.7289 63 40H-63C-63 80.3168 -30.3168 113 10 113V-13ZM40 -13H10V113H40V-13ZM-13 40C-13 10.7289 10.7289 -13 40 -13V113C80.3168 113 113 80.3168 113 40H-13ZM-13 10V40H113V10H-13ZM40 63C10.7289 63 -13 39.2711 -13 10H113C113 -30.3168 80.3168 -63 40 -63V63ZM10 63H40V-63H10V63Z" fill="#B60083" mask="url(#path-1-inside-1_13_5)"/>
</svg>
